<svg width="182" height="39" viewBox="0 0 182 39" fill="none" xmlns="http://www.w3.org/2000/svg">
<path d="M71.3901 18.5523V4.09082H74.0771V16.2812H81.6397V18.5553H71.3931L71.3901 18.5523Z" fill="#EC7344"/>
<path d="M90.2727 18.7587C89.1431 18.7587 88.1048 18.5729 87.1521 18.2013C86.2024 17.8296 85.3765 17.3105 84.6716 16.641C83.9696 15.9714 83.424 15.1869 83.0405 14.2843C82.6541 13.3817 82.4624 12.3937 82.4624 11.32C82.4624 10.2464 82.6541 9.25832 83.0405 8.35577C83.4269 7.45321 83.9696 6.66864 84.6716 5.9991C85.3736 5.33251 86.1994 4.81045 87.1521 4.43881C88.1019 4.06717 89.1342 3.88135 90.2521 3.88135C91.3699 3.88135 92.417 4.06717 93.3609 4.43881C94.3047 4.81045 95.1276 5.32956 95.8296 5.9991C96.5316 6.66864 97.0773 7.45321 97.4607 8.35577C97.8471 9.25832 98.0388 10.2464 98.0388 11.32C98.0388 12.3937 97.8471 13.3847 97.4607 14.2961C97.0743 15.2045 96.5316 15.9891 95.8296 16.6528C95.1276 17.3164 94.3047 17.8296 93.3609 18.2013C92.417 18.5729 91.3876 18.7587 90.2727 18.7587ZM90.2521 16.4021C90.9806 16.4021 91.6561 16.2782 92.2755 16.0304C92.8949 15.7827 93.4317 15.4287 93.8859 14.9656C94.3401 14.5055 94.6941 13.9657 94.9507 13.3552C95.2043 12.7417 95.3341 12.0633 95.3341 11.32C95.3341 10.5768 95.2073 9.89836 94.9507 9.28486C94.697 8.67136 94.3401 8.13455 93.8859 7.67443C93.4317 7.2143 92.8949 6.85741 92.2755 6.60965C91.6561 6.36189 90.9806 6.23801 90.2521 6.23801C89.5235 6.23801 88.8511 6.36189 88.2376 6.60965C87.6241 6.85741 87.0873 7.21135 86.6271 7.67443C86.167 8.1375 85.8072 8.67431 85.5535 9.28486C85.2969 9.89836 85.1701 10.5768 85.1701 11.32C85.1701 12.0633 85.2969 12.724 85.5535 13.3434C85.8072 13.9628 86.1641 14.5026 86.6183 14.9656C87.0725 15.4287 87.6093 15.7827 88.2287 16.0304C88.8481 16.2782 89.5235 16.4021 90.2521 16.4021Z" fill="#EC7344"/>
<path d="M98.6406 18.5523L105.147 4.09082H107.793L114.32 18.5523H111.509L105.911 5.51544H106.985L101.407 18.5523H98.6406ZM101.637 15.2046L102.36 13.0986H110.17L110.893 15.2046H101.637Z" fill="#EC7344"/>
<path d="M116.158 18.5523V4.09082H118.37L127.44 15.2253H126.345V4.09082H129.012V18.5523H126.8L117.73 7.41788H118.824V18.5523H116.158Z" fill="#EC7344"/>
<path d="M83.9196 36.3352L86.2349 38.8511H83.604L82.3091 37.4649C80.9081 38.1167 79.5779 38.4441 78.3184 38.4441C76.0532 38.4441 74.1272 37.6684 72.5462 36.1169C70.9653 34.5655 70.1748 32.6837 70.1748 30.4774C70.1748 28.2712 70.9741 26.5221 72.5728 25.0002C74.1714 23.4782 76.1004 22.7202 78.3568 22.7202C80.6132 22.7202 82.4831 23.4753 84.0818 24.9913C85.6804 26.5044 86.4797 28.3096 86.4797 30.4096C86.4797 32.7869 85.6273 34.7631 83.9196 36.3381V36.3352ZM80.796 35.8397L77.5575 32.371H80.1884L82.4595 34.8044C83.7101 33.6069 84.3354 32.1882 84.3354 30.5512C84.3354 28.9142 83.7514 27.5515 82.5864 26.4425C81.4184 25.3335 79.9702 24.779 78.2417 24.779C76.5133 24.779 75.1949 25.3423 74.0416 26.4691C72.8884 27.5958 72.3103 28.9614 72.3103 30.5659C72.3103 32.1705 72.9002 33.5331 74.0829 34.654C75.2657 35.7718 76.705 36.3322 78.404 36.3322C79.1148 36.3322 79.9141 36.1671 80.8019 35.8367L80.796 35.8397Z" fill="#3A827E"/>
<path d="M95.7296 38.1548C93.7476 38.1548 92.1932 37.5973 91.0724 36.4824C89.9486 35.3675 89.3882 33.7541 89.3882 31.6481V23.4868H92.0752V31.5449C92.0752 33.0315 92.3967 34.1139 93.0367 34.7894C93.6768 35.4648 94.5823 35.8011 95.7532 35.8011C96.9242 35.8011 97.8268 35.4648 98.4609 34.7894C99.095 34.1139 99.4106 33.0344 99.4106 31.5449V23.4868H102.056V31.6481C102.056 33.7541 101.496 35.3675 100.372 36.4824C99.2484 37.5973 97.7029 38.1548 95.7355 38.1548H95.7296Z" fill="#3A827E"/>
<path d="M103.454 37.9454L109.961 23.4839H112.604L119.131 37.9454H116.32L110.722 24.9085H111.795L106.218 37.9454H103.448H103.454ZM106.451 34.5977L107.173 32.4917H114.984L115.706 34.5977H106.451Z" fill="#3A827E"/>
<path d="M120.974 37.9454V23.4839H123.186L132.256 34.6183H131.162V23.4839H133.828V37.9454H131.619L122.549 26.8109H123.643V37.9454H120.977H120.974Z" fill="#3A827E"/>
<path d="M140.642 37.9454V25.755H135.849V23.481H148.122V25.755H143.329V37.9454H140.642Z" fill="#3A827E"/>
<path d="M156.094 38.1548C154.112 38.1548 152.558 37.5973 151.437 36.4824C150.313 35.3675 149.753 33.7541 149.753 31.6481V23.4868H152.44V31.5449C152.44 33.0315 152.761 34.1139 153.401 34.7894C154.042 35.4648 154.947 35.8011 156.118 35.8011C157.289 35.8011 158.191 35.4648 158.826 34.7894C159.46 34.1139 159.775 33.0344 159.775 31.5449V23.4868H162.418V31.6481C162.418 33.7541 161.858 35.3675 160.734 36.4824C159.61 37.5973 158.065 38.1548 156.094 38.1548Z" fill="#3A827E"/>
<path d="M166.176 37.9454V23.4839H168.388L174.709 34.0402H173.553L179.77 23.4839H181.979L182 37.9454H179.457L179.437 27.4716H179.974L174.685 36.2936H173.488L168.117 27.4716H168.736V37.9454H166.173H166.176Z" fill="#3A827E"/>
<path d="M55.7989 29.7195C58.3266 26.4692 59.7217 22.8059 59.7217 18.3167C59.7217 7.95504 52.0766 0.657933 41.7503 0.0444336C31.0082 0.690378 23.6167 8.65407 23.6167 18.9361C23.6167 29.2181 31.138 37.5122 41.886 38.0962C43.5702 38.0224 45.1039 37.8101 46.561 37.3558C46.8943 37.2526 47.2246 37.1346 47.552 37.0019L40.3228 30.1325C39.6768 30.0705 39.0456 29.9584 38.4321 29.7962C33.7925 28.5722 30.3121 24.5431 30.3121 18.9361C30.3121 12.5917 34.698 7.99928 40.3228 7.99928C40.8065 7.99928 41.2814 8.03468 41.7444 8.09957C46.7203 8.8163 50.4367 13.2553 50.4367 18.7296C50.4367 19.8563 50.2862 20.9064 50.0267 21.8945C49.8615 22.5345 49.6491 23.1451 49.4043 23.735L47.1096 21.8414L47.0978 21.8325L36.5533 21.865L53.864 37.9752H56.7132H64.3348L55.7989 29.7225V29.7195Z" fill="#3A827E"/>
<path d="M26.8906 8.05816C26.9762 7.93428 27.0646 7.8104 27.1531 7.68652C27.0646 7.8104 26.9762 7.93133 26.8906 8.05816Z" fill="#EC7344"/>
<path d="M23.7495 16.6146C23.7702 16.4259 23.7908 16.2342 23.8174 16.0483C23.7908 16.2371 23.7702 16.4259 23.7495 16.6146Z" fill="#EC7344"/>
<path d="M28.5571 5.9846C28.6604 5.87547 28.7636 5.76929 28.8698 5.66016C28.7636 5.76634 28.6604 5.87252 28.5571 5.9846Z" fill="#EC7344"/>
<path d="M25.5396 10.3734C25.6074 10.2348 25.6782 10.0932 25.749 9.95752C25.6782 10.0961 25.6074 10.2348 25.5396 10.3734Z" fill="#EC7344"/>
<path d="M23.8823 15.6471C23.9118 15.4701 23.9384 15.2932 23.9708 15.1191C23.9384 15.2932 23.9089 15.4701 23.8823 15.6471Z" fill="#EC7344"/>
<path d="M24.2744 13.7977C24.3157 13.6355 24.3599 13.4762 24.4042 13.314C24.357 13.4732 24.3157 13.6355 24.2744 13.7977Z" fill="#EC7344"/>
<path d="M24.0562 14.7094C24.0915 14.5413 24.1269 14.3732 24.1653 14.2051C24.124 14.3703 24.0915 14.5413 24.0562 14.7094Z" fill="#EC7344"/>
<path d="M25.165 11.1963C25.227 11.0517 25.2889 10.9072 25.3568 10.7627C25.2919 10.9072 25.2299 11.0517 25.165 11.1963Z" fill="#EC7344"/>
<path d="M29.8345 4.7456C29.9466 4.64826 30.0616 4.55093 30.1766 4.45654C30.0616 4.55388 29.9466 4.64826 29.8345 4.7456Z" fill="#EC7344"/>
<path d="M24.5312 12.9069C24.5814 12.7506 24.6286 12.5943 24.6817 12.4409C24.6286 12.5943 24.5784 12.7506 24.5312 12.9069Z" fill="#EC7344"/>
<path d="M23.6167 18.9358C23.6167 18.6084 23.6255 18.281 23.6403 17.9565C23.6255 18.281 23.6167 18.6054 23.6167 18.9358Z" fill="#EC7344"/>
<path d="M40.4053 0.167857C40.5675 0.147211 40.7297 0.129514 40.8949 0.111816C40.7297 0.126564 40.5675 0.147211 40.4053 0.167857Z" fill="#EC7344"/>
<path d="M39.4141 0.309598C39.5733 0.283052 39.7297 0.256506 39.8919 0.23291C39.7326 0.256506 39.5733 0.283052 39.4141 0.309598Z" fill="#EC7344"/>
<path d="M38.4468 0.495772C38.6031 0.463327 38.7565 0.427933 38.9128 0.398438C38.7565 0.427933 38.6002 0.463327 38.4468 0.495772Z" fill="#EC7344"/>
<path d="M29.5071 5.04395C29.398 5.14423 29.2859 5.24746 29.1797 5.35069C29.2859 5.24746 29.398 5.14718 29.5071 5.04395Z" fill="#EC7344"/>
<path d="M41.9715 0.0322464C41.8978 0.0351959 41.824 0.0381454 41.7532 0.0410949C41.6412 0.046994 41.5291 0.0587921 41.417 0.0676406C41.5999 0.052893 41.7857 0.0381454 41.9715 0.0292969V0.0322464Z" fill="#EC7344"/>
<path d="M43.1719 0C43.5465 0 43.9181 0.0117981 44.2868 0.0265457C43.9181 0.00884856 43.5465 0 43.1719 0Z" fill="#EC7344"/>
<path d="M37.5029 0.722473C37.6534 0.68118 37.8038 0.639886 37.9572 0.604492C37.8038 0.639886 37.6534 0.684129 37.5029 0.722473Z" fill="#EC7344"/>
<path d="M32.7603 2.65479C32.89 2.5781 33.0257 2.51026 33.1614 2.43652C33.0287 2.51026 32.893 2.5781 32.7603 2.65479Z" fill="#EC7344"/>
<path d="M31.9844 3.12659C32.1112 3.044 32.241 2.96731 32.3708 2.89062C32.241 2.97026 32.1112 3.04695 31.9844 3.12659Z" fill="#EC7344"/>
<path d="M31.2383 3.63403C31.3592 3.54554 31.486 3.46296 31.6099 3.38037C31.486 3.46591 31.3592 3.54849 31.2383 3.63403Z" fill="#EC7344"/>
<path d="M30.5215 4.1737C30.6395 4.07931 30.7604 3.99083 30.8784 3.90234C30.7574 3.99378 30.6365 4.08226 30.5215 4.1737Z" fill="#EC7344"/>
<path d="M35.686 1.295C35.8306 1.2419 35.9721 1.18586 36.1167 1.13867C35.9721 1.18881 35.8306 1.24485 35.686 1.295Z" fill="#EC7344"/>
<path d="M24.413 24.5961C24.3658 24.4338 24.3245 24.2716 24.2803 24.1064C24.3245 24.2687 24.3658 24.4338 24.413 24.5961Z" fill="#EC7344"/>
<path d="M34.0582 36.0962C33.9077 36.0225 33.7603 35.9517 33.6128 35.875C33.7603 35.9517 33.9107 36.0225 34.0582 36.0962Z" fill="#EC7344"/>
<path d="M35.8041 36.8455C35.636 36.7836 35.4679 36.7246 35.3057 36.6567C35.4708 36.7216 35.639 36.7836 35.8041 36.8455Z" fill="#EC7344"/>
<path d="M33.2348 35.6686C33.0932 35.589 32.9487 35.5123 32.8071 35.4297C32.9487 35.5123 33.0903 35.589 33.2348 35.6686Z" fill="#EC7344"/>
<path d="M40.9482 38.0253C40.7771 38.0076 40.612 37.987 40.4438 37.9663C40.612 37.987 40.7801 38.0106 40.9482 38.0253Z" fill="#EC7344"/>
<path d="M43.1221 38.1315C43.5439 38.1315 43.9509 38.1226 44.352 38.1108C43.9509 38.1256 43.5409 38.1315 43.1221 38.1315Z" fill="#EC7344"/>
<path d="M43.1216 38.1315C42.8031 38.1315 42.4845 38.1226 42.1719 38.1108C42.4875 38.1256 42.8031 38.1315 43.1216 38.1315Z" fill="#EC7344"/>
<path d="M58.651 29.7191C61.1787 26.4688 62.5709 22.8055 62.5709 18.3163C62.5738 7.86322 54.793 0.533664 44.3281 0.0292969C33.4562 0.572008 25.9585 8.57405 25.9585 18.9357C25.9585 29.2974 33.5771 37.615 44.4372 38.1076C46.2394 38.0456 47.8705 37.8392 49.4101 37.3554C49.7434 37.2522 50.0738 37.1342 50.4012 37.0015L43.1719 30.1321C42.5259 30.0701 41.8947 29.9581 41.2812 29.7958C36.6446 28.5718 33.1612 24.5427 33.1612 18.9357C33.1612 13.3287 36.8216 8.80706 41.7414 8.09918C42.2074 8.03134 42.6823 7.99889 43.1689 7.99889C48.8468 7.99889 53.2828 12.7447 53.2828 18.7322C53.2828 20.5904 52.8699 22.2392 52.2505 23.7375L50.0207 21.897L49.9469 21.8351L47.1065 21.8439L39.4024 21.8675L56.7131 37.9748H67.1839L58.651 29.7221V29.7191Z" fill="#EC7344"/>
<path d="M39.9512 37.9044C39.7772 37.8778 39.6091 37.8483 39.438 37.8188C39.6091 37.8483 39.7801 37.8808 39.9512 37.9044Z" fill="#EC7344"/>
<path d="M38.9749 37.7391C38.7891 37.7037 38.6091 37.6594 38.4263 37.6211C38.6091 37.6624 38.7891 37.7037 38.9749 37.7391Z" fill="#EC7344"/>
<path d="M38.0194 37.5295C37.7097 37.4528 37.4 37.3702 37.0962 37.2817C37.4 37.3702 37.7067 37.4528 38.0194 37.5295Z" fill="#EC7344"/>
<path d="M41.4585 38.0635C41.6001 38.0753 41.7416 38.09 41.8862 38.0959C41.9216 38.0959 41.957 38.0959 41.9924 38.0989C41.8124 38.09 41.6384 38.0753 41.4614 38.0605L41.4585 38.0635Z" fill="#EC7344"/>
<path d="M24.1712 23.6934C24.1299 23.5252 24.0945 23.3542 24.0591 23.186C24.0945 23.3571 24.1299 23.5252 24.1712 23.6934Z" fill="#EC7344"/>
<path d="M25.0119 26.339C24.9529 26.1886 24.8969 26.0352 24.8379 25.8818C24.8939 26.0352 24.95 26.1886 25.0119 26.339Z" fill="#EC7344"/>
<path d="M25.3714 27.1768C25.3036 27.0323 25.2416 26.8819 25.1797 26.7344C25.2416 26.8819 25.3065 27.0293 25.3714 27.1768Z" fill="#EC7344"/>
<path d="M23.8203 21.8383C23.7937 21.6495 23.7731 21.4608 23.7524 21.269C23.7731 21.4578 23.7937 21.6495 23.8203 21.8383Z" fill="#EC7344"/>
<path d="M23.7083 20.8857C23.6877 20.6733 23.6759 20.458 23.6641 20.2456C23.6788 20.4609 23.6906 20.6733 23.7083 20.8857Z" fill="#EC7344"/>
<path d="M23.9737 22.7731C23.9413 22.5961 23.9118 22.4192 23.8853 22.2422C23.9147 22.4192 23.9413 22.5991 23.9737 22.7731Z" fill="#EC7344"/>
<path d="M29.2148 32.6777C29.3269 32.7869 29.442 32.896 29.554 33.0022C29.439 32.896 29.324 32.7869 29.2148 32.6777Z" fill="#EC7344"/>
<path d="M28.9138 32.3709C28.8046 32.2589 28.6955 32.1468 28.5923 32.0317C28.6985 32.1468 28.8046 32.2589 28.9138 32.3709Z" fill="#EC7344"/>
<path d="M28.3033 31.7104C28.2001 31.5924 28.0998 31.4744 27.9995 31.3564C28.0998 31.4774 28.2001 31.5954 28.3033 31.7104Z" fill="#EC7344"/>
<path d="M23.6611 17.6352C23.6759 17.4199 23.6877 17.2046 23.7054 16.9922C23.6847 17.2046 23.6729 17.4199 23.6611 17.6352Z" fill="#EC7344"/>
<path d="M27.7256 31.0201C27.6282 30.8991 27.5338 30.7753 27.4395 30.6484C27.5338 30.7723 27.6282 30.8962 27.7256 31.0201Z" fill="#EC7344"/>
<path d="M27.1825 30.3034C27.091 30.1765 27.0025 30.0468 26.9141 29.9199C27.0025 30.0497 27.091 30.1765 27.1825 30.3034Z" fill="#EC7344"/>
<path d="M26.2032 28.7904C26.1236 28.6547 26.0469 28.5161 25.9702 28.3745C26.0469 28.5131 26.1236 28.6518 26.2032 28.7904Z" fill="#EC7344"/>
<path d="M31.6483 35.2991C28.7313 36.3373 23.2363 37.0364 16.9332 37.0364C7.654 37.0364 0.115031 35.5174 0 33.6385V29.521C0 31.4175 7.58321 32.9601 16.9332 32.9601C21.0006 32.9601 24.7376 32.6681 27.6576 32.1815C27.7048 32.2316 27.755 32.2847 27.8051 32.3348C27.9083 32.4381 28.0116 32.5413 28.1148 32.6416C28.221 32.7419 28.3242 32.8451 28.4334 32.9395C28.51 33.0132 28.5897 33.084 28.6664 33.1489C28.8079 33.2757 28.9495 33.3967 29.094 33.5176C29.1914 33.6002 29.2917 33.6828 29.389 33.7565C29.5276 33.8686 29.6663 33.9748 29.8078 34.0839C29.917 34.1665 30.0261 34.2461 30.1382 34.3228C30.2591 34.4113 30.3771 34.4968 30.501 34.5765C30.6189 34.6591 30.7399 34.7387 30.8608 34.8154C30.8697 34.8213 30.8756 34.8242 30.8844 34.8301C30.9965 34.9039 31.1086 34.9747 31.2236 35.0425C31.3622 35.128 31.5009 35.2136 31.6424 35.2903L31.6483 35.2991Z" fill="#3A827E"/>
<path d="M25.5989 29.6163C25.9115 30.0882 26.2448 30.5454 26.6017 30.9849C23.8646 31.3712 20.5316 31.6013 16.9361 31.6013C7.654 31.6013 0.115031 30.0823 0 28.2035V24.0859C0 25.9854 7.58321 27.5251 16.9332 27.5251C19.5494 27.5251 22.024 27.4041 24.2362 27.1888C24.2922 27.3127 24.3483 27.4277 24.4073 27.5487C24.4839 27.705 24.5636 27.8584 24.6432 28.0147C24.714 28.1504 24.7877 28.2831 24.8615 28.4158C25.0355 28.7255 25.2154 29.0323 25.4101 29.3302C25.4691 29.4305 25.534 29.5248 25.5989 29.6192V29.6163Z" fill="#3A827E"/>
<path d="M23.5607 25.5429C23.602 25.655 23.6433 25.7671 23.6876 25.8792C21.62 26.062 19.3341 26.1623 16.9361 26.1623C7.654 26.1653 0.115031 24.6463 0 22.7704V18.6499C0 20.5494 7.58321 22.092 16.9332 22.092C18.9389 22.092 20.8678 22.0212 22.6523 21.8885C22.6641 21.9799 22.6788 22.0684 22.6936 22.1539C22.7142 22.2837 22.7349 22.4076 22.7614 22.5344C22.7939 22.7379 22.8352 22.9356 22.8794 23.1361C22.8942 23.2158 22.9119 23.2924 22.9296 23.3691C22.9974 23.6552 23.0682 23.9413 23.1449 24.2215C23.1773 24.3454 23.2127 24.4634 23.2481 24.5843C23.2835 24.7053 23.3218 24.8203 23.3572 24.9412C23.3897 25.0445 23.4251 25.1477 23.4605 25.248C23.4929 25.3453 23.5283 25.4456 23.5607 25.54V25.5429Z" fill="#3A827E"/>
<path d="M16.9332 16.6525C18.9094 16.6525 20.8088 16.5847 22.5697 16.4549C22.552 16.6024 22.5343 16.7469 22.5225 16.8973C22.5048 17.0595 22.493 17.2218 22.4812 17.384C22.4694 17.5491 22.4606 17.7114 22.4517 17.8765C22.437 18.201 22.4281 18.5313 22.4281 18.8676C22.4281 19.0741 22.4281 19.2746 22.437 19.4781C22.437 19.6079 22.4458 19.7318 22.4517 19.8616C22.4635 20.0887 22.4783 20.3158 22.4989 20.54C20.7558 20.6638 18.8828 20.7317 16.9302 20.7317C7.654 20.7317 0.115031 19.2127 0 17.3338V13.2163C0 15.1128 7.58321 16.6554 16.9332 16.6554V16.6525Z" fill="#3A827E"/>
<path d="M24.0917 10.8955L24.0828 10.9132C24.0238 11.0459 23.9648 11.1757 23.9088 11.3113C23.8557 11.4382 23.8056 11.562 23.7554 11.6889C23.723 11.7656 23.6935 11.8452 23.664 11.9219C23.6256 12.0192 23.5902 12.1136 23.5549 12.2109C23.5165 12.323 23.4782 12.4322 23.4398 12.5472C23.3956 12.677 23.3513 12.8067 23.31 12.9395C23.3041 12.9542 23.2982 12.9719 23.2953 12.9896C23.2628 13.0928 23.2304 13.199 23.198 13.3023C23.1744 13.3907 23.1478 13.4792 23.1242 13.5677C23.1154 13.6002 23.1065 13.6326 23.0977 13.668C23.0623 13.7889 23.0328 13.9099 23.0033 14.0337C22.9974 14.0544 22.9915 14.075 22.9856 14.0986C22.9531 14.2343 22.9207 14.37 22.8912 14.5057C22.8499 14.6974 22.8086 14.8862 22.7732 15.0808C20.9504 15.2194 18.9801 15.2902 16.9243 15.2902C7.654 15.2961 0.115031 13.7771 0 11.8983V7.78076C0 9.68025 7.58321 11.2199 16.9332 11.2199C19.4904 11.2199 21.9179 11.1049 24.0917 10.8984V10.8955Z" fill="#3A827E"/>
<path d="M29.7724 3.84008C29.6781 3.90792 29.5837 3.97871 29.4952 4.0495C29.4126 4.11144 29.33 4.17633 29.2504 4.24122C29.2179 4.26776 29.1855 4.29431 29.153 4.32085C29.0528 4.40049 28.9554 4.48308 28.861 4.56271C28.7549 4.6512 28.6546 4.73969 28.5513 4.83112C28.4127 4.9491 28.28 5.07003 28.1472 5.19391C28.0647 5.27355 27.9821 5.35319 27.9054 5.42987C27.7727 5.5567 27.6458 5.68353 27.522 5.81626C27.4482 5.89 27.3774 5.96374 27.3125 6.03747C26.8465 6.53594 26.41 7.06391 26.0059 7.61252C25.9381 7.7069 25.8702 7.80128 25.8024 7.89272C25.5281 8.28501 25.2656 8.68614 25.0237 9.09907C22.6199 9.36453 19.865 9.51495 16.9391 9.51495C7.58321 9.52085 0 7.98121 0 6.08172C0 4.18223 7.58321 2.64258 16.9332 2.64258C22.0653 2.64258 26.6666 3.10565 29.7695 3.84008H29.7724Z" fill="#3A827E"/>
<path d="M42.0365 37.8981C42.066 37.8981 42.0984 37.8981 42.1279 37.8981C41.9804 37.8922 41.8389 37.8834 41.6943 37.8716C41.8094 37.8804 41.9214 37.8893 42.0365 37.8952V37.8981Z" fill="#0B4A7A"/>
</svg>
