<svg width="136" height="40" viewBox="0 0 136 40" fill="none" xmlns="http://www.w3.org/2000/svg">
<rect width="136" height="40" fill="#F5F5F5"/>
<g id="Home" clip-path="url(#clip0_139_3705)">
<rect width="1440" height="4656" transform="translate(-420 -4525)" fill="white"/>
<g id="Group 451412">
<rect id="Rectangle 6027" x="-420" y="-366" width="1434" height="497" fill="white"/>
<g id="Group 451411">
<g id="Group 18">
<g id="Google_Play">
<g id="Group">
<g id="Group_2">
<path id="Vector" d="M130.733 39.5006H5.11705C2.55855 39.5006 0.499268 37.4413 0.499268 34.8828V5.1168C0.499268 2.5583 2.55855 0.499023 5.11705 0.499023H130.671C133.229 0.499023 135.289 2.5583 135.289 5.1168V34.8828C135.351 37.4413 133.292 39.5006 130.733 39.5006Z" fill="black"/>
<path id="Vector_2" d="M130.733 40H5.117C2.30889 40 0 37.6911 0 34.883V5.117C0 2.30889 2.30889 0 5.117 0H130.671C133.479 0 135.788 2.30889 135.788 5.117V34.883C135.85 37.7535 133.541 40 130.733 40ZM5.117 1.06084C2.87051 1.06084 0.99844 2.87052 0.99844 5.17941V34.9454C0.99844 37.1919 2.80811 39.064 5.117 39.064H130.671C132.917 39.064 134.789 37.2543 134.789 34.9454V5.17941C134.789 2.93292 132.98 1.06084 130.671 1.06084H5.117Z" fill="white"/>
</g>
<g id="GET IT ON">
<path d="M44.1559 13.086C43.6129 13.086 43.1363 12.9613 42.7263 12.712C42.3163 12.4571 41.9976 12.1052 41.7705 11.6564C41.5433 11.202 41.4297 10.6784 41.4297 10.0855C41.4297 9.49259 41.5433 8.96895 41.7705 8.51458C42.0032 8.06021 42.3301 7.70558 42.7512 7.45069C43.1779 7.1958 43.6794 7.06836 44.2556 7.06836C44.9095 7.06836 45.4525 7.22628 45.8847 7.54212C46.3225 7.85796 46.6051 8.29294 46.7325 8.84705H45.9263C45.8487 8.49796 45.6631 8.22091 45.3694 8.01589C45.0813 7.81087 44.71 7.70836 44.2556 7.70836C43.829 7.70836 43.4577 7.80532 43.1419 7.99926C42.826 8.18766 42.5795 8.45917 42.4021 8.8138C42.2304 9.16843 42.1445 9.59233 42.1445 10.0855C42.1445 10.5786 42.2304 11.0025 42.4021 11.3572C42.5739 11.7118 42.8122 11.9861 43.1169 12.18C43.4217 12.3684 43.7763 12.4626 44.1808 12.4626C44.8014 12.4626 45.2697 12.2825 45.5855 11.9224C45.9013 11.5566 46.0814 11.0579 46.1258 10.4263H44.4468V9.87769H46.8406V12.9862H46.2006L46.1424 12.0304C45.9318 12.3684 45.6742 12.6288 45.3694 12.8117C45.0646 12.9946 44.6601 13.086 44.1559 13.086Z" fill="white"/>
<path d="M47.9446 12.9862V7.1681H51.5436V7.7416H48.6428V9.76964H51.2942V10.3348H48.6428V12.4127H51.5436V12.9862H47.9446Z" fill="white"/>
<path d="M53.9993 12.9862V7.7416H52.2622V7.1681H56.4346V7.7416H54.6975V12.9862H53.9993Z" fill="white"/>
<path d="M59.4868 12.9862V7.1681H60.185V12.9862H59.4868Z" fill="white"/>
<path d="M62.7817 12.9862V7.7416H61.0446V7.1681H65.217V7.7416H63.4799V12.9862H62.7817Z" fill="white"/>
<path d="M70.9123 13.086C70.3416 13.086 69.8401 12.9613 69.4079 12.712C68.9812 12.4571 68.646 12.1024 68.4022 11.6481C68.1639 11.1937 68.0448 10.6701 68.0448 10.0772C68.0448 9.48427 68.1639 8.96341 68.4022 8.51458C68.646 8.06021 68.9812 7.70558 69.4079 7.45069C69.8401 7.1958 70.3416 7.06836 70.9123 7.06836C71.4886 7.06836 71.99 7.1958 72.4167 7.45069C72.8489 7.70558 73.1841 8.06021 73.4224 8.51458C73.6607 8.96341 73.7798 9.48427 73.7798 10.0772C73.7798 10.6701 73.6607 11.1937 73.4224 11.6481C73.1841 12.1024 72.8489 12.4571 72.4167 12.712C71.99 12.9613 71.4886 13.086 70.9123 13.086ZM70.9123 12.4709C71.339 12.4709 71.713 12.3767 72.0344 12.1883C72.3613 11.9944 72.6134 11.7201 72.7907 11.3655C72.9736 11.0053 73.065 10.5759 73.065 10.0772C73.065 9.57847 72.9736 9.15181 72.7907 8.79718C72.6134 8.44255 72.3613 8.17104 72.0344 7.98264C71.713 7.7887 71.339 7.69173 70.9123 7.69173C70.4856 7.69173 70.1088 7.7887 69.7819 7.98264C69.4605 8.17104 69.2084 8.44255 69.0256 8.79718C68.8482 9.15181 68.7596 9.57847 68.7596 10.0772C68.7596 10.5759 68.8482 11.0053 69.0256 11.3655C69.2084 11.7201 69.4605 11.9944 69.7819 12.1883C70.1088 12.3767 70.4856 12.4709 70.9123 12.4709Z" fill="white"/>
<path d="M74.787 12.9862V7.1681H75.4852L78.5854 11.8309V7.1681H79.2836V12.9862H78.5854L75.4852 8.32342V12.9862H74.787Z" fill="white"/>
</g>
</g>
</g>
<path id="Vector_3" d="M68.3361 21.8064C65.9679 21.8064 64.0359 23.6341 64.0359 26.0921C64.0359 28.5501 65.9679 30.3778 68.3361 30.3778C70.7044 30.3778 72.6364 28.5501 72.6364 26.0921C72.6364 23.6341 70.7044 21.8064 68.3361 21.8064ZM68.3361 28.7392C67.0274 28.7392 65.9056 27.6677 65.9056 26.1551C65.9056 24.5795 67.0274 23.5711 68.3361 23.5711C69.6449 23.5711 70.7667 24.6425 70.7667 26.1551C70.7667 27.6677 69.6449 28.7392 68.3361 28.7392ZM59.0501 21.8064C56.6819 21.8064 54.7499 23.6341 54.7499 26.0921C54.7499 28.5501 56.6819 30.3778 59.0501 30.3778C61.4184 30.3778 63.3504 28.5501 63.3504 26.0921C63.288 23.6341 61.3561 21.8064 59.0501 21.8064ZM59.0501 28.7392C57.7414 28.7392 56.6196 27.6677 56.6196 26.1551C56.6196 24.5795 57.7414 23.5711 59.0501 23.5711C60.3589 23.5711 61.4807 24.6425 61.4807 26.1551C61.4184 27.6677 60.2966 28.7392 59.0501 28.7392ZM47.8945 23.1299V24.9577H52.1947C52.0701 25.9661 51.6961 26.7224 51.1976 27.2896C50.5743 27.9198 49.5772 28.6131 47.8322 28.6131C45.1523 28.6131 43.0957 26.4703 43.0957 23.7602C43.0957 21.0501 45.1523 18.9073 47.8322 18.9073C49.2656 18.9073 50.325 19.4745 51.0729 20.2308L52.3194 18.9703C51.2599 17.8989 49.8265 17.1426 47.7698 17.1426C44.0928 17.1426 41.0391 20.1678 41.0391 23.8232C41.0391 27.5417 44.0928 30.5038 47.7698 30.5038C49.7641 30.5038 51.1976 29.8736 52.3817 28.6131C53.5658 27.4156 53.9397 25.714 53.9397 24.3274C53.9397 23.8862 53.8774 23.5081 53.8151 23.193H47.8945V23.1299ZM93.3273 24.5795C92.9533 23.6341 91.8939 21.8064 89.6503 21.8064C87.469 21.8064 85.5993 23.5711 85.5993 26.0921C85.5993 28.487 87.4067 30.3778 89.8372 30.3778C91.7692 30.3778 92.891 29.1803 93.3896 28.487L91.9562 27.4787C91.4576 28.1719 90.8344 28.6761 89.8372 28.6761C88.9024 28.6761 88.2169 28.2349 87.7806 27.3526L93.4519 24.9577L93.3273 24.5795ZM87.5313 26.0291C87.469 24.3904 88.7778 23.5081 89.7749 23.5081C90.5228 23.5081 91.146 23.8862 91.333 24.4535L87.5313 26.0291ZM82.8572 30.1887H84.7268V17.5207H82.8572V30.1887ZM79.8034 22.7518H79.7411C79.3048 22.2476 78.4946 21.8064 77.4975 21.8064C75.3785 21.8064 73.3842 23.6972 73.3842 26.1551C73.3842 28.5501 75.3162 30.4408 77.4975 30.4408C78.4946 30.4408 79.3048 29.9996 79.7411 29.4324H79.8034V30.0627C79.8034 31.7013 78.9309 32.5837 77.4975 32.5837C76.3757 32.5837 75.6278 31.7643 75.3785 31.0711L73.7581 31.7643C74.2567 32.8988 75.4408 34.2853 77.5598 34.2853C79.7411 34.2853 81.6107 32.9618 81.6107 29.8106V22.0585H79.8034V22.7518ZM77.6844 28.7392C76.3757 28.7392 75.3162 27.6677 75.3162 26.1551C75.3162 24.6425 76.3757 23.5081 77.6844 23.5081C78.9309 23.5081 79.9903 24.6425 79.9903 26.1551C79.928 27.6677 78.9309 28.7392 77.6844 28.7392ZM102.115 17.5207H97.6275V30.1887H99.4972V25.3988H102.115C104.171 25.3988 106.228 23.8862 106.228 21.4913C106.228 19.0964 104.171 17.5207 102.115 17.5207ZM102.177 23.6341H99.4972V19.2854H102.177C103.548 19.2854 104.358 20.4829 104.358 21.4283C104.358 22.4367 103.548 23.6341 102.177 23.6341ZM113.707 21.8064C112.336 21.8064 110.964 22.4367 110.341 23.7602L112.024 24.4535C112.398 23.7602 113.021 23.5081 113.707 23.5081C114.704 23.5081 115.639 24.0753 115.701 25.1467V25.2728C115.389 25.0837 114.641 24.7686 113.769 24.7686C111.962 24.7686 110.154 25.777 110.154 27.6047C110.154 29.3064 111.65 30.3778 113.27 30.3778C114.517 30.3778 115.202 29.8106 115.639 29.1173H115.701V30.1257H117.508V25.2728C117.508 23.0669 115.888 21.8064 113.707 21.8064ZM113.52 28.7392C112.896 28.7392 112.024 28.424 112.024 27.6677C112.024 26.6593 113.083 26.3442 114.018 26.3442C114.828 26.3442 115.202 26.5333 115.701 26.7854C115.576 27.9198 114.579 28.7392 113.52 28.7392ZM124.114 22.0585L121.995 27.5417H121.933L119.69 22.0585H117.695L121.061 29.7475L119.129 34.0332H121.061L126.233 22.0585H124.114ZM107.225 30.1887H109.095V17.5207H107.225V30.1887Z" fill="white"/>
<g id="Group_3">
<path id="Vector_4" d="M10.6087 7.67569C10.2967 7.9877 10.1719 8.48692 10.1719 9.11094V31.2638C10.1719 31.8879 10.3591 32.3871 10.6087 32.6991L10.6711 32.7615L23.1516 20.281V20.1562V20.0314L10.7335 7.61328L10.6087 7.67569Z" fill="#5BC9F4"/>
<path id="Vector_5" d="M27.2699 24.4613L23.1514 20.3428V20.218V20.0932L27.2699 15.9746L27.3323 16.037L32.2621 18.8451C33.635 19.6564 33.635 20.9668 32.2621 21.7156L27.3323 24.5238L27.2699 24.4613Z" fill="url(#paint0_linear_139_3705)"/>
<path id="Vector_6" d="M27.3323 24.3996L23.0889 20.1562L10.6084 32.6367C11.0452 33.136 11.8564 33.1984 12.6677 32.6991L27.3323 24.3996Z" fill="url(#paint1_linear_139_3705)"/>
<path id="Vector_7" d="M27.3323 15.9128L12.6677 7.61323C11.794 7.11401 11.0452 7.17641 10.6084 7.67563L23.0889 20.1561L27.3323 15.9128Z" fill="url(#paint2_linear_139_3705)"/>
</g>
</g>
</g>
</g>
</g>
<defs>
<linearGradient id="paint0_linear_139_3705" x1="31.3569" y1="20.1565" x2="7.09128" y2="20.1565" gradientUnits="userSpaceOnUse">
<stop stop-color="#FEE000"/>
<stop offset="0.1941" stop-color="#FCCF0B"/>
<stop offset="0.5469" stop-color="#FAB318"/>
<stop offset="0.8279" stop-color="#F9A21B"/>
<stop offset="1" stop-color="#F99B1C"/>
</linearGradient>
<linearGradient id="paint1_linear_139_3705" x1="25.0596" y1="22.4583" x2="2.23673" y2="45.2812" gradientUnits="userSpaceOnUse">
<stop stop-color="#EF4547"/>
<stop offset="1" stop-color="#C6186D"/>
</linearGradient>
<linearGradient id="paint2_linear_139_3705" x1="2.13502" y1="-5.06958" x2="20.7693" y2="13.5647" gradientUnits="userSpaceOnUse">
<stop stop-color="#279E6F"/>
<stop offset="0.3168" stop-color="#4DAB6D"/>
<stop offset="0.7398" stop-color="#6ABA6A"/>
<stop offset="1" stop-color="#74C169"/>
</linearGradient>
<clipPath id="clip0_139_3705">
<rect width="1440" height="4656" fill="white" transform="translate(-420 -4525)"/>
</clipPath>
</defs>
</svg>
