<svg width="136" height="40" viewBox="0 0 136 40" fill="none" xmlns="http://www.w3.org/2000/svg">
<path d="M130.733 39.4382H5.11705C2.55855 39.4382 0.499268 37.3789 0.499268 34.8204V5.11681C0.499268 2.55831 2.55855 0.499023 5.11705 0.499023H130.671C133.229 0.499023 135.289 2.55831 135.289 5.11681V34.8828C135.351 37.3789 133.292 39.4382 130.733 39.4382Z" fill="black"/>
<path d="M130.733 40H5.117C2.30889 40 0 37.6911 0 34.883V5.117C0 2.30889 2.30889 0 5.117 0H130.671C133.479 0 135.788 2.30889 135.788 5.117V34.883C135.85 37.6911 133.541 40 130.733 40ZM5.117 0.99844C2.87051 0.99844 0.99844 2.80811 0.99844 5.117V34.883C0.99844 37.1295 2.80811 39.0016 5.117 39.0016H130.671C132.917 39.0016 134.789 37.1919 134.789 34.883V5.117C134.789 2.87052 132.98 0.99844 130.671 0.99844H5.117Z" fill="white"/>
<path d="M30.3279 19.5947C30.3279 16.3498 33.0113 14.7897 33.1361 14.6649C31.6384 12.4184 29.2671 12.1688 28.3935 12.1064C26.3966 11.9192 24.4621 13.2921 23.4637 13.2921C22.4028 13.2921 20.9052 12.1064 19.2203 12.1688C17.0362 12.2312 15.0393 13.4793 13.9161 15.4137C11.6072 19.3451 13.3545 25.2109 15.5386 28.3935C16.6618 29.9535 17.9099 31.7008 19.5947 31.6384C21.2172 31.576 21.8412 30.5775 23.8381 30.5775C25.7726 30.5775 26.3966 31.6384 28.0815 31.576C29.8287 31.576 30.952 30.0159 32.0128 28.3935C33.2609 26.5838 33.7601 24.8365 33.8225 24.7117C33.7601 24.7741 30.3904 23.4637 30.3279 19.5947Z" fill="white"/>
<path d="M27.145 10.0473C28.0187 8.92403 28.6427 7.42637 28.4555 5.92871C27.2074 5.99111 25.585 6.80235 24.6489 7.86319C23.8377 8.79923 23.0889 10.3593 23.2761 11.8569C24.7113 11.9818 26.209 11.1081 27.145 10.0473Z" fill="white"/>
<path d="M54.0408 31.3893H51.732L50.4839 27.4579H46.1157L44.9301 31.3893H42.6836L46.9894 18.0352H49.6727L54.0408 31.3893ZM50.1095 25.7731L48.9862 22.2785C48.8614 21.9041 48.6118 21.0929 48.2998 19.7824H48.2374C48.1126 20.344 47.863 21.2177 47.6134 22.2785L46.4901 25.7731H50.1095Z" fill="white"/>
<path d="M65.0862 26.459C65.0862 28.0815 64.6493 29.3919 63.7757 30.328C62.9645 31.2016 61.966 31.576 60.8428 31.576C59.5947 31.576 58.6587 31.1392 58.0971 30.2031H58.0347V35.2577H55.913V24.8989C55.913 23.8381 55.913 22.8397 55.8506 21.7164H57.7227L57.8475 23.2141H57.9099C58.5963 22.0908 59.7195 21.4668 61.1548 21.4668C62.278 21.4668 63.2141 21.9036 64.0253 22.8397C64.7117 23.7757 65.0862 24.9613 65.0862 26.459ZM62.9021 26.5214C62.9021 25.5854 62.7149 24.8365 62.278 24.2125C61.8412 23.5885 61.2172 23.2765 60.406 23.2765C59.9067 23.2765 59.4075 23.4637 58.9707 23.7757C58.5339 24.1501 58.2843 24.5869 58.0971 25.1485C58.0347 25.3982 57.9723 25.6478 57.9723 25.7726V27.395C57.9723 28.0815 58.1595 28.7055 58.5963 29.1423C59.0331 29.6415 59.5947 29.8911 60.2812 29.8911C61.0924 29.8911 61.7164 29.5791 62.1532 28.9551C62.7149 28.3311 62.9021 27.5198 62.9021 26.5214Z" fill="white"/>
<path d="M76.1936 26.459C76.1936 28.0815 75.7568 29.3919 74.8831 30.328C74.0719 31.2016 73.1359 31.576 71.9502 31.576C70.7022 31.576 69.7661 31.1392 69.2045 30.2031H69.1421V35.2577H67.0204V24.8989C67.0204 23.8381 67.0204 22.8397 66.958 21.7164H68.8301L68.9549 23.2141H69.0173C69.7037 22.0908 70.827 21.4668 72.2622 21.4668C73.3855 21.4668 74.3215 21.9036 75.1327 22.8397C75.8192 23.7757 76.1936 24.9613 76.1936 26.459ZM74.0095 26.5214C74.0095 25.5854 73.8223 24.8365 73.3855 24.2125C72.9486 23.5885 72.3246 23.2765 71.5134 23.2765C71.0142 23.2765 70.5149 23.4637 70.0781 23.7757C69.6413 24.1501 69.3917 24.5869 69.2669 25.1485C69.2045 25.3982 69.1421 25.6478 69.1421 25.7726V27.395C69.1421 28.0815 69.3293 28.7055 69.7661 29.1423C70.2029 29.6415 70.7646 29.8911 71.451 29.8911C72.2622 29.8911 72.8862 29.5791 73.3231 28.9551C73.7599 28.3311 74.0095 27.5198 74.0095 26.5214Z" fill="white"/>
<path d="M88.6118 27.6449C88.6118 28.7682 88.2374 29.7042 87.4261 30.4531C86.5525 31.2643 85.3669 31.6387 83.8068 31.6387C82.3715 31.6387 81.1859 31.3891 80.3123 30.8275L80.8115 29.0178C81.7475 29.5794 82.8083 29.8914 83.9316 29.8914C84.7428 29.8914 85.3668 29.7042 85.8037 29.3298C86.2405 28.9554 86.4901 28.4562 86.4901 27.8946C86.4901 27.3329 86.3029 26.8961 85.9285 26.5217C85.5541 26.1473 84.93 25.8353 84.0564 25.4609C81.6851 24.5872 80.5619 23.2768 80.5619 21.6543C80.5619 20.5311 80.9987 19.6574 81.8099 18.971C82.6211 18.2846 83.7444 17.9102 85.0548 17.9102C86.3029 17.9102 87.3013 18.0974 88.1126 18.5342L87.5509 20.2815C86.8021 19.8446 85.9285 19.6574 84.9924 19.6574C84.2436 19.6574 83.6196 19.8446 83.2452 20.219C82.8708 20.5311 82.6835 20.9679 82.6835 21.4047C82.6835 21.9039 82.8708 22.3407 83.3076 22.7151C83.682 23.0272 84.306 23.4016 85.242 23.776C86.3653 24.2128 87.2389 24.7744 87.8006 25.3985C88.2998 25.8977 88.6118 26.7089 88.6118 27.6449Z" fill="white"/>
<path d="M95.6633 23.3395H93.292V28.0196C93.292 29.2053 93.7289 29.8293 94.5401 29.8293C94.9145 29.8293 95.2265 29.7669 95.4761 29.7045L95.5385 31.327C95.1017 31.5142 94.5401 31.5766 93.8537 31.5766C92.98 31.5766 92.356 31.327 91.8568 30.8278C91.3576 30.3285 91.1704 29.4549 91.1704 28.2069V23.3395H89.7351V21.717H91.1704V19.9697L93.292 19.3457V21.717H95.6633V23.3395Z" fill="white"/>
<path d="M106.334 26.4591C106.334 27.9568 105.897 29.1424 105.086 30.1408C104.212 31.1393 103.027 31.6385 101.529 31.6385C100.094 31.6385 98.9704 31.1393 98.1592 30.2032C97.348 29.2672 96.9111 28.0816 96.9111 26.6463C96.9111 25.1486 97.348 23.9006 98.2216 22.9646C99.0952 22.0285 100.281 21.5293 101.716 21.5293C103.151 21.5293 104.275 22.0285 105.148 22.9646C105.959 23.8382 106.334 25.0238 106.334 26.4591ZM104.087 26.5215C104.087 25.6479 103.9 24.899 103.526 24.2126C103.089 23.4638 102.465 23.027 101.591 23.027C100.718 23.027 100.094 23.4014 99.6568 24.2126C99.2824 24.8366 99.0952 25.6479 99.0952 26.5215C99.0952 27.3951 99.2824 28.144 99.6568 28.8304C100.094 29.5792 100.78 29.9536 101.591 29.9536C102.403 29.9536 103.027 29.5792 103.526 28.768C103.9 28.2064 104.087 27.4575 104.087 26.5215Z" fill="white"/>
<path d="M113.323 23.5887C113.136 23.5263 112.886 23.5263 112.637 23.5263C111.888 23.5263 111.326 23.8383 110.89 24.3999C110.515 24.8991 110.328 25.5232 110.328 26.3344V31.389H108.206V24.7743C108.206 23.6511 108.206 22.6526 108.144 21.7166H110.016L110.078 23.5887H110.141C110.39 22.9646 110.702 22.4654 111.202 22.091C111.701 21.7166 112.2 21.5918 112.762 21.5918C112.949 21.5918 113.136 21.5918 113.323 21.6542V23.5887Z" fill="white"/>
<path d="M122.87 26.0848C122.87 26.4592 122.87 26.7712 122.808 27.0832H116.381C116.381 28.0193 116.693 28.7681 117.317 29.2673C117.878 29.7041 118.565 29.9537 119.438 29.9537C120.374 29.9537 121.248 29.8289 122.059 29.5169L122.371 31.0146C121.435 31.389 120.374 31.6386 119.126 31.6386C117.629 31.6386 116.443 31.2018 115.632 30.3281C114.758 29.4545 114.321 28.2689 114.321 26.7712C114.321 25.3359 114.696 24.0879 115.507 23.1519C116.318 22.091 117.441 21.5918 118.877 21.5918C120.25 21.5918 121.31 22.091 122.059 23.1519C122.621 23.9007 122.87 24.8991 122.87 26.0848ZM120.874 25.5232C120.874 24.8991 120.749 24.3375 120.437 23.9007C120.062 23.2767 119.501 23.0271 118.752 23.0271C118.065 23.0271 117.504 23.3391 117.067 23.9007C116.693 24.3375 116.505 24.8991 116.443 25.5856H120.874V25.5232Z" fill="white"/>
<path d="M42.9385 12.3439L45.0617 6.58313H45.7942L47.9092 12.3439H47.1767L46.65 10.8625H44.1976L43.6627 12.3439H42.9385ZM44.4034 10.3029H46.4443L45.4238 7.45547L44.4034 10.3029Z" fill="white"/>
<path d="M49.7064 12.3439L47.542 6.58313H48.2909L50.1096 11.6114L51.9449 6.58313H52.6773L50.5129 12.3439H49.7064Z" fill="white"/>
<path d="M52.3093 12.3439L54.4326 6.58313H55.165L57.28 12.3439H56.5476L56.0209 10.8625H53.5685L53.0335 12.3439H52.3093ZM53.7742 10.3029H55.8152L54.7947 7.45547L53.7742 10.3029Z" fill="white"/>
<path d="M58.1364 12.3439V6.58313H58.8277V12.3439H58.1364Z" fill="white"/>
<path d="M60.0492 12.3439V6.58313H60.7405V11.7925H63.4233V12.3439H60.0492Z" fill="white"/>
<path d="M64.0109 12.3439L66.1341 6.58313H66.8665L68.9816 12.3439H68.2491L67.7224 10.8625H65.27L64.7351 12.3439H64.0109ZM65.4757 10.3029H67.5167L66.4962 7.45547L65.4757 10.3029Z" fill="white"/>
<path d="M69.838 12.3439V6.58313H71.8624C72.2684 6.58313 72.6031 6.64897 72.8665 6.78064C73.1353 6.90683 73.3356 7.0824 73.4672 7.30734C73.5989 7.5268 73.6647 7.77368 73.6647 8.04801C73.6647 8.42108 73.5632 8.71461 73.3602 8.92858C73.1627 9.14255 72.9241 9.29068 72.6443 9.37298C72.8582 9.41138 73.053 9.49642 73.2286 9.6281C73.4041 9.75977 73.5413 9.92436 73.64 10.1219C73.7443 10.3194 73.7964 10.5361 73.7964 10.772C73.7964 11.0628 73.7251 11.3289 73.5824 11.5703C73.4398 11.8062 73.2286 11.9955 72.9488 12.1381C72.6689 12.2753 72.3288 12.3439 71.9283 12.3439H69.838ZM70.5292 9.1014H71.8131C72.1807 9.1014 72.4632 9.01636 72.6607 8.84628C72.8582 8.67072 72.957 8.42931 72.957 8.12207C72.957 7.83129 72.8582 7.59812 72.6607 7.42255C72.4687 7.24699 72.1779 7.15921 71.7884 7.15921H70.5292V9.1014ZM70.5292 11.7678H71.8542C72.2492 11.7678 72.5537 11.6773 72.7677 11.4962C72.9817 11.3097 73.0887 11.0518 73.0887 10.7226C73.0887 10.3989 72.9762 10.1411 72.7512 9.94905C72.5263 9.75154 72.2218 9.65279 71.8378 9.65279H70.5292V11.7678Z" fill="white"/>
<path d="M74.7886 12.3439V6.58313H75.4799V11.7925H78.1627V12.3439H74.7886Z" fill="white"/>
<path d="M79.1124 12.3439V6.58313H82.6758V7.15098H79.8037V9.15901H82.4289V9.71862H79.8037V11.776H82.6758V12.3439H79.1124Z" fill="white"/>
<path d="M88.5526 12.4426C87.9875 12.4426 87.491 12.3192 87.063 12.0723C86.6406 11.8199 86.3087 11.4688 86.0672 11.0189C85.8313 10.569 85.7134 10.0506 85.7134 9.4635C85.7134 8.87646 85.8313 8.36073 86.0672 7.91633C86.3087 7.46645 86.6406 7.11531 87.063 6.86294C87.491 6.61056 87.9875 6.48438 88.5526 6.48438C89.1232 6.48438 89.6197 6.61056 90.0422 6.86294C90.4701 7.11531 90.802 7.46645 91.038 7.91633C91.2739 8.36073 91.3918 8.87646 91.3918 9.4635C91.3918 10.0506 91.2739 10.569 91.038 11.0189C90.802 11.4688 90.4701 11.8199 90.0422 12.0723C89.6197 12.3192 89.1232 12.4426 88.5526 12.4426ZM88.5526 11.8336C88.9751 11.8336 89.3454 11.7404 89.6636 11.5538C89.9873 11.3618 90.2369 11.0902 90.4125 10.7391C90.5936 10.3825 90.6841 9.95728 90.6841 9.4635C90.6841 8.96973 90.5936 8.54727 90.4125 8.19614C90.2369 7.84501 89.9873 7.57617 89.6636 7.38963C89.3454 7.19761 88.9751 7.1016 88.5526 7.1016C88.1301 7.1016 87.7571 7.19761 87.4334 7.38963C87.1152 7.57617 86.8655 7.84501 86.6845 8.19614C86.5089 8.54727 86.4211 8.96973 86.4211 9.4635C86.4211 9.95728 86.5089 10.3825 86.6845 10.7391C86.8655 11.0902 87.1152 11.3618 87.4334 11.5538C87.7571 11.7404 88.1301 11.8336 88.5526 11.8336Z" fill="white"/>
<path d="M92.3891 12.3439V6.58313H93.0804L96.15 11.2V6.58313H96.8413V12.3439H96.15L93.0804 7.72705V12.3439H92.3891Z" fill="white"/>
<path d="M101.591 12.3439V7.15098H99.8707V6.58313H104.002V7.15098H102.282V12.3439H101.591Z" fill="white"/>
<path d="M104.846 12.3439V6.58313H105.537V9.12609H108.525V6.58313H109.216V12.3439H108.525V9.69393H105.537V12.3439H104.846Z" fill="white"/>
<path d="M110.432 12.3439V6.58313H113.995V7.15098H111.123V9.15901H113.748V9.71862H111.123V11.776H113.995V12.3439H110.432Z" fill="white"/>
</svg>
